{"title":"Suspect Zero 2004 DVDrip English Klam","uid":7179896,"size":1879987066,"categoryP":"video","categoryS":"movies","magnet":"?xt=urn:btih:1b912e52144ecbd408473c9258cb256cad56c9d4&amp;dn=Suspect+Zero+2004+DVDrip+English+Klam&amp;tr=udp%3A%2F%2Ftracker.openbittorrent.com%3A80&amp;tr=udp%3A%2F%2Fopen.demonii.com%3A1337&amp;tr=udp%3A%2F%2Ftracker.coppersurfer.tk%3A6969&amp;tr=udp%3A%2F%2Fexodus.desync.com%3A6969","seeders":1,"leechers":0,"uploader":"Klambake","files":-1,"time":1334230819,"description":"With: Aaron Eckhart, Carrie-Anne Moss and Ben Kingsley\n\nFBI-agent Thomas Mackelway onderzoekt de zaak van een vermoorde seriemoordenaar. Hij ontdekt dat de voormalige FBI-agent Benjamin O'Ryan het recht in eigen handen heeft genomen en zelf achter de seriemoordenaars aanzit, maar niet om ze gevangen te nemen. Het spoor leidt naar de &quot;Suspect Zero&quot;, een seriemoordenaar die al meer dan honderd slachtoffers heeft gemaakt. Thomas moet zorgen dat hij &quot;Suspect Zero&quot; eerder te pakken heeft dan O'Ryan om te voorkomen dat O'Ryan verandert in datgene dat hij zelf het meest veracht... een seriemoordenaar.\n\nA mysterious serial killer is hunting other serial killers - and one FBI agent suspects there may be more to the vigilante than they imagine. \n\n------------------------ Dutch Friends ------------------------\n---------------------------------------------------------------\n- Bezoek ook eens mijn vrienden op: &lt;a href=&quot; http://www.Film-Test.nl&quot; rel=&quot;nofollow&quot; target=&quot;_NEW&quot;&gt; http://www.Film-Test.nl&lt;/a&gt; --\n----- voor mijn Nederlandse Sync. ondertitels ---- en meer ----\n------- http://www.Film-Test.nl ---- voor Films en meer -------\n---------------------------------------------------------------\n\nGeneral:\n\nComplete name                    : Suspect ZeroSuspect Zero.avi\nFormat                           : AVI\nFormat/Info                      : Audio Video Interleave\nFile size                        : 1.75 GiB\nDuration                         : 1h 35mn\nOverall bit rate                 : 2 623 Kbps\n\nVideo:\n\nFormat                           : MPEG-4 Visual\nFormat profile                   : Simple@L3\nFormat settings, BVOP            : No\nFormat settings, QPel            : No\nFormat settings, GMC             : No warppoints\nFormat settings, Matrix          : Default (H.263)\nCodec ID                         : XVID\nCodec ID/Hint                    : XviD\nDuration                         : 1h 35mn\nBit rate                         : 2 164 Kbps\nWidth                            : 704 pixels\nHeight                           : 396 pixels\nDisplay aspect ratio             : 16:9\nFrame rate                       : 25.000 fps\nColor space                      : YUV\nChroma subsampling               : 4:2:0\nBit depth                        : 8 bits\nScan type                        : Progressive\nCompression mode                 : Lossy\nBits/(Pixel*Frame)               : 0.311\nStream size                      : 1.44 GiB (83%)\nWriting library                  : XviD 1.1.2 (UTC 2006-11-01)\n\nAudio:\n\nFormat                           : AC-3\nFormat/Info                      : Audio Coding 3\nMode extension                   : CM (complete main)\nCodec ID                         : 2000\nDuration                         : 1h 35mn\nBit rate mode                    : Constant\nBit rate                         : 448 Kbps\nChannel(s)                       : 6 channels\nChannel positions                : Front: L C R, Side: L R, LFE\nSampling rate                    : 48.0 KHz\nBit depth                        : 16 bits\nCompression mode                 : Lossy\nStream size                      : 306 MiB (17%)\nAlignment                        : Aligned on interleaves\nInterleave, duration             : 32 ms (0.80 video frame)\n\n\n","torrent":{"xt":"urn:btih:1b912e52144ecbd408473c9258cb256cad56c9d4","amp;dn":"Suspect+Zero+2004+DVDrip+English+Klam","amp;tr":["udp%3A%2F%2Ftracker.openbittorrent.com%3A80","udp%3A%2F%2Fopen.demonii.com%3A1337","udp%3A%2F%2Ftracker.coppersurfer.tk%3A6969","udp%3A%2F%2Fexodus.desync.com%3A6969"],"infoHash":"1b912e52144ecbd408473c9258cb256cad56c9d4","infoHashBuffer":{"type":"Buffer","data":[27,145,46,82,20,78,203,212,8,71,60,146,88,203,37,108,173,86,201,212]},"announce":[],"urlList":[]}}